
<svg style="position: absolute; width: 0; height: 0;" width="0" height="0" version="1.1" xmlns="http://www.w3.org/2000/svg" xmlns:xlink="http://www.w3.org/1999/xlink">
<defs>
 <symbol id="icon-serious" viewBox="0 0 57 64">
<circle style="fill:#F7B239;" cx="255.996" cy="256.006" r="218.495"/>
<path style="fill:#E09B2D;" d="M141.207,370.794c-78.6-78.6-84.793-202.183-18.586-287.875c-7.334,5.666-14.39,11.859-21.117,18.586
	c-85.326,85.326-85.326,223.667,0,308.993s223.667,85.326,308.993,0c6.726-6.726,12.92-13.783,18.586-21.117
	C343.39,455.588,219.807,449.394,141.207,370.794z"/>
<path style="fill:#FFFFFF;" d="M359.803,219.989v37.847c-57.326,57.326-150.274,57.326-207.61,0v-37.847
	C209.529,277.326,302.477,277.326,359.803,219.989z"/>
<path style="fill:#F95428;" d="M282.415,327.557c16.845,0,31.487,9.405,38.969,23.248c-17.849,14.502-40.6,23.183-65.381,23.183
	c-24.781,0-47.532-8.681-65.381-23.183c7.472-13.843,22.125-23.248,38.959-23.248c9.902,0,19.047,3.25,26.422,8.746
	C263.378,330.808,272.513,327.557,282.415,327.557z"/>
<path style="fill:#A81004;" d="M359.803,257.836v12.353c0,28.668-11.618,54.616-30.407,73.393c-2.538,2.548-5.215,4.956-8.012,7.224
	c-7.483-13.843-22.125-23.248-38.969-23.248c-9.902,0-19.037,3.25-26.412,8.746c-7.375-5.496-16.521-8.746-26.422-8.746
	c-16.834,0-31.487,9.405-38.959,23.248c-23.453-19.015-38.43-48.072-38.43-80.617v-12.353
	C209.529,315.161,302.477,315.161,359.803,257.836z"/>
<path style="fill:#2BA5F7;" d="M8.098,240.087L8.098,240.087c0-26.232,21.265-47.497,47.497-47.497h47.497v47.497
	c0,26.231-21.265,47.497-47.497,47.497l0,0C29.364,287.584,8.098,266.32,8.098,240.087z"/>
<path style="fill:#2197D8;" d="M30.614,240.087L30.614,240.087c0-26.232,21.265-47.497,47.497-47.497H55.595
	c-26.231,0-47.497,21.265-47.497,47.497l0,0c0,26.232,21.265,47.497,47.497,47.497l0,0c3.881,0,7.648-0.476,11.258-1.354
	C46.057,281.174,30.614,262.439,30.614,240.087z"/>
<path style="fill:#2BA5F7;" d="M503.903,240.087L503.903,240.087c0-26.232-21.265-47.497-47.497-47.497H408.91v47.497
	c0,26.231,21.265,47.497,47.497,47.497l0,0C482.637,287.584,503.903,266.32,503.903,240.087z"/>
<path style="fill:#2197D8;" d="M426.818,240.087v-47.497h-17.909v47.497c0,26.232,21.265,47.497,47.497,47.497l0,0
	c3.062,0,6.053-0.301,8.955-0.855C443.411,282.54,426.818,263.256,426.818,240.087z"/>
<path d="M362.902,212.507c-3.027-1.254-6.51-0.56-8.826,1.756c-26.196,26.201-61.026,40.63-98.075,40.63
	s-71.881-14.429-98.082-40.63c-2.317-2.317-5.8-3.008-8.825-1.756c-3.027,1.254-4.999,4.207-4.999,7.482v50.199
	c0,33.885,15.1,65.561,41.422,86.901c19.84,16.119,44.873,24.996,70.487,24.996c25.615,0,50.647-8.877,70.481-24.991
	c3.045-2.469,5.956-5.094,8.636-7.786c21.139-21.125,32.78-49.224,32.78-79.12v-50.199
	C367.901,216.713,365.929,213.761,362.902,212.507z M256.002,271.09c35.156,0,68.521-11.631,95.702-33.078v16.41
	c-53.449,50.989-137.955,50.99-191.414,0V238.01C187.478,259.456,220.848,271.09,256.002,271.09z M201.61,348.911
	c6.793-8.3,17-13.255,27.971-13.255c7.851,0,15.315,2.469,21.583,7.142c2.871,2.139,6.808,2.139,9.678,0
	c6.269-4.672,13.728-7.142,21.573-7.142c10.97,0,21.179,4.955,27.979,13.258c-15.899,10.984-34.944,16.976-54.391,16.976
	C236.557,365.89,217.513,359.898,201.61,348.911z M323.657,337.868c-0.247,0.248-0.506,0.493-0.758,0.741
	c-9.842-11.997-24.617-19.15-40.484-19.15c-9.403,0-18.428,2.453-26.412,7.14c-7.985-4.686-17.013-7.14-26.422-7.14
	c-15.873,0-30.648,7.154-40.482,19.154c-17.035-16.608-27.212-38.815-28.632-62.648c27.943,21.922,61.737,32.89,95.535,32.89
	c33.791,0,67.576-10.965,95.512-32.877C350.127,299.366,340.377,321.16,323.657,337.868z"/>
<path d="M512,240.087c0-25.321-17.022-46.727-40.219-53.416c-14.152-43.99-42.135-83.437-79.182-111.472
	c-39.588-29.958-86.821-45.793-136.596-45.793c-49.779,0-97.017,15.835-136.606,45.793c-37.047,28.034-65.032,67.482-79.184,111.474
	C17.02,193.364,0,214.768,0,240.087c0,22.231,13.12,41.445,32.019,50.333c7.971,52.248,34.122,100.188,73.988,135.422
	c41.405,36.596,94.676,56.75,149.996,56.75c55.316,0,108.583-20.154,149.987-56.75c39.864-35.235,66.015-83.174,73.987-135.42
	C498.878,281.536,512,262.32,512,240.087z M16.197,240.087c0-21.724,17.674-39.398,39.398-39.398h39.398v39.398
	c0,21.724-17.674,39.398-39.398,39.398S16.197,261.812,16.197,240.087z M395.264,413.707
	c-38.441,33.977-87.898,52.689-139.261,52.689c-51.367,0-100.827-18.713-139.27-52.689c-35.144-31.061-58.801-72.752-67.44-118.392
	c2.07,0.234,4.17,0.367,6.302,0.367c30.655,0,55.595-24.94,55.595-55.595v-47.497c0-19.354,15.745-35.1,35.1-35.1
	s35.1,15.745,35.1,35.1c0,4.472,3.626,8.098,8.098,8.098s8.098-3.626,8.098-8.098c0-28.285-23.011-51.296-51.296-51.296
	c-25.529,0-46.756,18.748-50.651,43.198H58.08c13.773-37.964,38.7-71.864,71.092-96.376c36.753-27.811,80.61-42.512,126.832-42.512
	c46.217,0,90.071,14.7,126.822,42.512c32.392,24.512,57.318,58.413,71.092,96.376h-37.556c-3.895-24.45-25.122-43.198-50.651-43.198
	c-28.284,0-51.295,23.011-51.295,51.296c0,4.472,3.625,8.098,8.098,8.098c4.474,0,8.098-3.626,8.098-8.098
	c0-19.354,15.745-35.1,35.098-35.1c19.354,0,35.1,15.745,35.1,35.1v47.497c0,30.655,24.94,55.595,55.595,55.595
	c2.13,0,4.229-0.133,6.297-0.367C454.064,340.956,430.408,382.646,395.264,413.707z M456.405,279.486
	c-21.724,0-39.398-17.674-39.398-39.398v-39.399h39.398c21.724,0,39.398,17.674,39.398,39.398S478.129,279.486,456.405,279.486z"/>
<g>
</g>
<g>
</g>
<g>
</g>
<g>
</g>
<g>
</g>
<g>
</g>
<g>
</g>
<g>
</g>
<g>
</g>
<g>
</g>
<g>
</g>
<g>
</g>
<g>
</g>
<g>
</g>
<g>
</g>
</symbol>
<symbol id="icon-globe" viewBox="0 0 57 64">
<title>globe</title>
<path fill="#6bc9ca" class="path1 fill-color1" d="M26.995 7.021c-0.362 0.679-0.589 1.178-0.136 1.676 0.181 0.226 0.181 0.498 0.045 0.725s-0.408 0.317-0.634 0.272c-0.453-0.045-3.216 0.498-4.031 1.766-0.091 0.181-0.453 0.77 0.226 1.766 0 0 0 0.045 0.045 0.045 0 0 0 0.045 0.045 0.045 0.045 0.091 0.136 0.226 0.181 0.317 0.589 0.996 1.087 2.219-0.544 3.759 0.272 0.136 0.453 0.362 0.589 0.589 0.362 0.77-0.091 1.585-0.498 2.355-0.272 0.453-0.634 1.132-0.498 1.404 0.045 0.091 0.136 0.181 0.317 0.226 0.679-0.77 2.491-2.718 5.254-3.805-1.585-0.861-1.721-1.404-1.766-1.631-0.091-0.272 0-0.543 0.181-0.77 0.951-1.268 2.174-0.77 2.989-0.408 0.453 0.181 0.906 0.408 1.223 0.272 0.226-0.091 0.453-0.408 0.679-0.906 0.091-0.272 0.408-0.408 0.679-0.362s0.498 0.272 0.498 0.589c0.045 0.589 0.272 0.725 0.498 0.725 0.544 0.091 1.223-0.272 1.404-0.679 0.091-0.226 0.272-0.362 0.544-0.362 0.226 0 0.453 0.091 0.544 0.317 0.544 0.951 0.634 1.812 0.362 2.627-0.589 1.676-2.763 2.536-4.892 3.352-0.815 0.317-1.585 0.634-2.219 0.951-1.449 0.77-6.25 3.578-6.658 7.020-0.181 1.54 0.634 3.080 2.355 4.575 2.401 2.038 3.805 0.951 5.616-0.408 1.359-1.042 2.944-2.265 4.982-1.766 1.404 0.362 2.355 1.812 3.397 3.306 0.679 1.042 1.359 2.084 2.174 2.763 2.265 1.902 3.986 2.355 5.118 1.313 2.989-2.627 2.129-13.18 0.408-16.849-1.948 1.404-3.85 1.314-5.118 0.951-2.355-0.679-4.076-2.582-4.529-4.031-0.045-0.272 0-0.498 0.136-0.679 0.362-0.362 0.951-0.362 2.491-0.181 0.272 0.045 0.589 0.045 0.77 0.091 0.362-0.544 0.725-0.861 1.178-0.951 0.77-0.136 1.313 0.408 1.857 0.906 0.226 0.181 0.589 0.544 0.725 0.544 0 0 0.453-0.181 0.951-2.446 0-0.045 0-0.091 0-0.136-0.408-0.589-2.672-0.861-3.623-0.951-0.634-0.091-0.996-0.136-1.223-0.181-0.181-0.045-0.362-0.226-0.408-0.453-0.045-0.181 0-0.408 0.136-0.543 0 0 0-0.045 0.045-0.045 0.136-0.136 0.362-0.226 0.544-0.181 1.585 0.317 2.627-0.634 3.578-1.404 0.317-0.317 0.725-0.634 1.087-0.815-3.759-3.306-8.515-5.209-13.588-5.299-0.181 0-0.362 0-0.544 0-0.815 0-1.631 0.045-2.446 0.136-0.226 0.317-0.362 0.589-0.498 0.861z"></path>
<path fill="#f05550" class="path2 fill-color2" d="M11.323 9.965c0.136-0.136 0.226-0.226 0.317-0.362 0.181-0.181 0.362-0.317 0.498-0.498l-1.676-1.676c-0.226-0.226-0.634-0.226-0.861 0s-0.226 0.634 0 0.861l1.721 1.676z"></path>
<path fill="#f05550" class="path3 fill-color2" d="M48.057 45.022c-0.136 0.136-0.272 0.272-0.408 0.453-0.136 0.136-0.317 0.272-0.453 0.408l1.721 1.721c0.136 0.136 0.272 0.181 0.408 0.181s0.317-0.045 0.408-0.181c0.226-0.226 0.226-0.634 0-0.861l-1.676-1.721z"></path>
<path fill="#f05550" class="path4 fill-color2" d="M29.667 51.273c-0.091 0-0.181 0-0.272 0-6.386-0.091-12.411-2.627-16.895-7.202s-6.885-10.644-6.839-17.030c0.091-6.386 2.627-12.411 7.202-16.895 0.815-0.815 1.721-1.54 2.627-2.219 0.272-0.181 0.634-0.136 0.861 0.136 0.181 0.272 0.136 0.634-0.136 0.861-0.861 0.634-1.721 1.359-2.491 2.129-4.348 4.258-6.794 9.965-6.839 16.034-0.091 6.024 2.219 11.776 6.477 16.125s9.965 6.794 16.034 6.839c6.069 0.045 11.822-2.219 16.17-6.477 0.861-0.815 1.631-1.721 2.355-2.718 0.181-0.272 0.589-0.317 0.861-0.136s0.317 0.589 0.136 0.861c-0.77 0.996-1.585 1.948-2.491 2.853-4.529 4.439-10.463 6.839-16.759 6.839z"></path>
<path fill="#f05550" class="path5 fill-color2" d="M29.984 52.858c-2.038 0-3.759 1.359-4.303 3.216h8.651c-0.589-1.857-2.31-3.216-4.348-3.216z"></path>
<path fill="#f05550" class="path6 fill-color2" d="M38.953 57.297h-17.936c-0.453 0-0.815 0.362-0.815 0.815s0.362 0.815 0.815 0.815h17.936c0.453 0 0.815-0.362 0.815-0.815s-0.362-0.815-0.815-0.815z"></path>
<path fill="#6bc9ca" class="path7 fill-color1" d="M45.294 12.727c-0.091-0.091-0.136-0.136-0.226-0.226 0 0 0 0-0.045 0-0.272-0.272-0.453-0.226-1.449 0.634-0.362 0.317-0.77 0.679-1.223 0.996 1.132 0.226 1.993 0.543 2.446 1.132 0.226 0.317 0.317 0.679 0.226 1.087-0.498 2.129-1.042 3.080-1.812 3.306s-1.404-0.362-1.902-0.815c-0.226-0.226-0.679-0.634-0.815-0.589-0.045 0-0.226 0.136-0.453 0.589s-0.679 0.408-1.812 0.272c-0.317-0.045-0.77-0.091-1.132-0.091 0.589 1.042 1.902 2.219 3.442 2.627 1.132 0.317 2.853 0.362 4.575-1.178 0.136-0.136 0.317-0.181 0.498-0.136 0.181 0 0.317 0.136 0.408 0.272 2.219 3.352 3.397 15.762-0.272 19.023-0.544 0.453-1.223 0.861-2.174 0.861-1.132 0-2.627-0.544-4.529-2.129-0.951-0.815-1.721-1.948-2.401-3.035-0.861-1.313-1.721-2.582-2.672-2.808-1.495-0.362-2.718 0.544-3.986 1.54-1.766 1.359-3.986 3.080-7.111 0.362-2.038-1.766-2.989-3.669-2.763-5.616 0.408-3.895 5.209-6.885 7.292-7.972 0.679-0.362 1.495-0.679 2.355-0.996 1.766-0.679 3.805-1.495 4.212-2.627 0.091-0.226 0.091-0.498 0.045-0.77-0.544 0.408-1.313 0.589-1.993 0.498-0.408-0.091-0.77-0.272-0.996-0.544-0.181 0.181-0.408 0.362-0.634 0.453-0.77 0.317-1.495 0-2.129-0.272-0.815-0.317-1.132-0.408-1.404-0.136 0.272 0.272 0.996 0.77 2.355 1.359 0 0 0.045 0 0.045 0.045 0.226 0.091 0.362 0.362 0.317 0.589s-0.226 0.453-0.453 0.544c-3.895 0.951-6.296 4.122-6.296 4.167-0.136 0.181-0.408 0.272-0.634 0.226-0.77-0.181-1.268-0.544-1.495-1.042-0.362-0.815 0.136-1.676 0.544-2.446 0.226-0.408 0.589-1.042 0.498-1.223 0 0-0.091-0.181-0.815-0.317-0.226-0.045-0.453-0.226-0.498-0.453s0.045-0.498 0.226-0.634c1.948-1.404 1.54-2.084 1.087-2.899-0.091-0.136-0.136-0.272-0.226-0.362-0.996-1.495-0.634-2.582-0.136-3.261 0.861-1.178 2.808-1.857 4.122-2.038-0.181-0.861 0.226-1.631 0.498-2.129 0 0 0 0 0 0-1.495 0.272-2.989 0.679-4.393 1.268-1.359 1.359-2.582 3.080-3.759 4.756-1.449 2.084-2.718 3.895-4.031 4.62-0.091 0.091-0.272 0.136-0.408 0.136 0 0 0 0 0 0-0.136 0-0.272-0.045-0.408-0.181-0.272-0.181-0.453-0.408-0.543-0.725-0.226-0.77 0.317-1.631 0.861-2.491 0.045-0.045 0.091-0.136 0.136-0.226-3.171 3.714-4.937 8.379-5.073 13.316-0.091 2.989 0.498 5.933 1.585 8.651 0.045 0 0.045 0.045 0.091 0.045 1.857 1.902 6.251 4.484 8.742 4.756 0 0 0 0 0 0s0 0 0.045 0h0.136c3.759 0.453 4.167 3.352 4.439 5.481 0.091 0.815 0.226 1.631 0.498 2.174 7.066 2.038 14.992 0.362 20.699-5.073 4.167-3.941 6.522-9.285 6.658-14.992 0.091-5.798-2.038-11.233-5.979-15.355z"></path>
<path fill="#6bc9ca" class="path8 fill-color1" d="M22.149 46.064c-0.272-2.129-0.544-4.167-3.533-4.439h-0.136c-2.038-0.272-5.028-1.766-7.247-3.352 0.815 1.449 1.857 2.763 3.035 4.031 2.355 2.446 5.163 4.258 8.153 5.345-0.136-0.498-0.181-1.042-0.272-1.585z"></path>
<path fill="#6bc9ca" class="path9 fill-color1" d="M16.804 11.776c0.589-0.861 1.223-1.766 1.902-2.672-1.314 0.815-2.582 1.766-3.714 2.854 0 0-0.045 0.045-0.045 0.045 0.045 0.045 0.045 0.091 0.091 0.136 0.317 0.679-0.181 1.495-0.725 2.355-0.181 0.272-0.543 0.861-0.679 1.223 0.951-0.77 2.038-2.31 3.171-3.941z"></path>
</symbol>
<symbol id="icon-chemistry" viewBox="0 0 57 64">
<title>chemistry</title>
<path fill="#f05550" class="path1 fill-color2" d="M29.622 62.551c0.045 0 0.045 0 0.091 0.045-0.045 0-0.091-0.045-0.091-0.045z"></path>
<path fill="#f05550" class="path2 fill-color2" d="M30.030 62.687c0.045 0 0.091 0 0.091 0.045-0.045-0.045-0.045-0.045-0.091-0.045z"></path>
<path fill="#f05550" class="path3 fill-color2" d="M38.636 37.639v0 0z"></path>
<path fill="#f05550" class="path4 fill-color2" d="M33.064 62.007c0 0 0.045-0.045 0.045-0.045 0 0.045-0.045 0.045-0.045 0.045z"></path>
<path fill="#f05550" class="path5 fill-color2" d="M32.657 62.279c0.045 0 0.045-0.045 0.091-0.045-0.045 0.045-0.045 0.045-0.091 0.045z"></path>
<path fill="#f05550" class="path6 fill-color2" d="M30.528 62.777c0 0 0 0 0 0s0 0 0 0z"></path>
<path fill="#f05550" class="path7 fill-color2" d="M31.434 62.732c0 0 0 0 0 0s0 0 0 0z"></path>
<path fill="#f05550" class="path8 fill-color2" d="M29.169 62.324c0.045 0 0.045 0.045 0.091 0.045-0.045 0-0.091 0-0.091-0.045z"></path>
<path fill="#f05550" class="path9 fill-color2" d="M34.106 60.512c0-0.045 0-0.045 0.045-0.091 0 0.045 0 0.045-0.045 0.091z"></path>
<path fill="#f05550" class="path10 fill-color2" d="M33.699 61.373c0-0.045 0.045-0.045 0.045-0.091-0.045 0.045-0.045 0.045-0.045 0.091z"></path>
<path fill="#f05550" class="path11 fill-color2" d="M33.925 60.965c0 0 0-0.045 0 0 0-0.045 0 0 0 0z"></path>
<path fill="#f05550" class="path12 fill-color2" d="M33.381 61.735c0 0 0.045-0.045 0.045-0.045s-0.045 0-0.045 0.045z"></path>
<path fill="#f05550" class="path13 fill-color2" d="M28.762 62.052c0.045 0.045 0.045 0.045 0.091 0.091-0.045 0-0.045-0.045-0.091-0.091z"></path>
<path fill="#f05550" class="path14 fill-color2" d="M30.936 62.777c0.045 0 0.045 0 0.091 0 0 0-0.045 0-0.091 0z"></path>
<path fill="#f05550" class="path15 fill-color2" d="M32.294 62.505c0 0 0.045 0 0.045-0.045 0 0-0.045 0-0.045 0.045z"></path>
<path fill="#f05550" class="path16 fill-color2" d="M31.841 62.641c0.045 0 0.045 0 0.091-0.045-0.045 0.045-0.091 0.045-0.091 0.045z"></path>
<path fill="#f05550" class="path17 fill-color2" d="M31.706 37.141c-2.265 0-4.575 0.498-7.020 1.042-2.854 0.634-6.115 1.359-9.829 1.359-2.627 0-5.254-0.362-7.926-1.042 9.24 9.104 22.239 22.285 22.375 22.466 0.544 0.544 1.178 0.679 1.585 0.679 0.906 0 1.993-0.589 2.219-1.812 0.045-0.181 3.171-14.856 4.212-21.424-1.857-0.861-3.623-1.268-5.616-1.268zM22.013 46.698c-0.725 0-1.359-0.589-1.359-1.359 0-0.725 0.589-1.359 1.359-1.359 0.725 0 1.359 0.589 1.359 1.359s-0.589 1.359-1.359 1.359zM28.49 52.948c-0.906 0-1.585-0.725-1.585-1.585s0.725-1.585 1.585-1.585 1.585 0.725 1.585 1.585-0.679 1.585-1.585 1.585zM30.256 44.026c-1.042 0-1.902-0.861-1.902-1.902s0.861-1.902 1.902-1.902 1.902 0.861 1.902 1.902-0.861 1.902-1.902 1.902z"></path>
<path fill="#f05550" class="path18 fill-color2" d="M56.708 2.219c0 1.226-0.994 2.219-2.219 2.219s-2.219-0.994-2.219-2.219c0-1.226 0.994-2.219 2.219-2.219s2.219 0.994 2.219 2.219z"></path>
<path fill="#f05550" class="path19 fill-color2" d="M55.938 8.515c0 0.8-0.649 1.449-1.449 1.449s-1.449-0.649-1.449-1.449c0-0.8 0.649-1.449 1.449-1.449s1.449 0.649 1.449 1.449z"></path>
<path fill="#6bc9ca" class="path20 fill-color1" d="M55.575 16.759l-8.334-8.334c-0.226-0.226-0.634-0.226-0.861 0s-0.226 0.634 0 0.861l1.178 1.178c-0.045 0.045-0.091 0.045-0.136 0.091l-11.776 11.776-1.042 0.181-30.8 6.024c-1.721 0.317-3.080 1.585-3.578 3.216-0.498 1.676-0.045 3.442 1.178 4.665l26.18 26.18c0.906 0.906 2.038 1.359 3.306 1.359 2.265 0 4.167-1.54 4.62-3.805l6.024-30.845 0.181-1.042 2.808-2.808 8.923-8.878c0.045-0.045 0.091-0.091 0.091-0.136l1.178 1.178c0.136 0.136 0.272 0.181 0.408 0.181s0.317-0.045 0.408-0.181c0.272-0.226 0.272-0.634 0.045-0.861zM43.618 24.685l-3.035 3.035-0.272 1.404-6.024 30.845c-0.362 1.766-1.857 2.808-3.397 2.808-0.861 0-1.721-0.317-2.446-1.042l-26.225-26.134c-1.948-1.948-0.951-5.345 1.812-5.843l32.249-6.341 12.003-12.003 4.303 4.303-8.968 8.968z"></path>
</symbol>
</defs>
</svg>
